# xmcd CD database file
#
# Track frame offsets:
#	150
#	13111
#	24345
#	43463
#	61235
#	77614
#	99686
#	111712
#
# Disc length: 1690 seconds
#
# Revision: 0
# Processed by: cddbd v1.5.2PL0 Copyright (c) Steve Scherf et al.
# Submitted via: CDex 1.51
#
DISCID=68069808
DTITLE=George Strait - Wrangler Long Live Cowboys Collection
DYEAR=2009
DGENRE=Country
TTITLE0=Amarillo By Morning
TTITLE1=I Can't See Texas From Here
TTITLE2=I Can Still Make Cheyenne
TTITLE3=How 'Bout Them Cowgirls
TTITLE4=Cowboys Like Us
TTITLE5=I Ain't Her Cowboy Anymore
TTITLE6=If Heartaches Were Horses
TTITLE7=The Cowboy Rides Away
EXTD=YEAR: 2009
EXTT0=
EXTT1=
EXTT2=
EXTT3=
EXTT4=
EXTT5=
EXTT6=
EXTT7=
PLAYORDER=
